<svg width="255" height="236" viewBox="0 0 255 236" fill="none" xmlns="http://www.w3.org/2000/svg">
<path fill-rule="evenodd" clip-rule="evenodd" d="M143.182 1.66127C144.026 2.31227 145.581 5.06027 148.78 11.5523C149.539 13.0923 150.319 14.6223 150.513 14.9523C150.707 15.2823 151.517 16.9023 152.314 18.5523C153.806 21.6413 158.694 31.4213 159.81 33.5523C160.155 34.2123 163.344 40.6923 166.898 47.9523C170.452 55.2123 173.518 61.4223 173.71 61.7523C174.581 63.2473 176.457 67.2473 176.711 68.1523C176.866 68.7023 177.3 69.6023 177.678 70.1523C178.056 70.7023 179.664 73.8523 181.249 77.1523C182.835 80.4523 184.3 83.4223 184.504 83.7523C184.708 84.0823 185.519 85.7023 186.306 87.3523C187.093 89.0023 188.264 91.3423 188.91 92.5523C189.555 93.7623 190.547 95.7423 191.113 96.9523C192.14 99.1493 194.491 103.862 195.503 105.752C195.797 106.302 196.616 107.922 197.322 109.352C198.029 110.782 198.749 112.222 198.924 112.552C201.776 117.921 201.734 119.652 198.66 123.352C198.386 123.682 197.96 124.703 197.716 125.621C197.472 126.539 197.14 127.349 196.979 127.421C196.818 127.493 194.104 132.772 190.949 139.152C184.285 152.627 183.778 153.615 182.839 154.952C182.452 155.502 181.937 156.717 181.695 157.652C181.453 158.587 181.082 159.352 180.871 159.352C180.659 159.352 180.487 159.556 180.487 159.805C180.487 160.183 179.516 162.222 177.311 166.479C177.12 166.849 176.376 168.412 175.661 169.952C172.195 177.414 179.947 176.531 117.997 176.519C89.1165 176.513 64.2265 176.383 62.6865 176.23C59.2645 175.89 58.3975 176.233 57.3825 178.329C56.9505 179.222 56.0765 180.943 55.4415 182.154C54.8065 183.365 54.0355 185.075 53.7295 185.954C53.4225 186.833 52.5715 188.494 51.8385 189.645C51.1055 190.796 50.3935 192.184 50.2565 192.729C50.1195 193.273 49.7555 193.929 49.4475 194.185C49.1385 194.441 48.8835 194.853 48.8795 195.101C48.8685 195.721 46.2425 201.4 45.8245 201.705C45.6385 201.841 45.0195 202.942 44.4485 204.152C43.2925 206.604 37.3965 218.794 36.8865 219.788C35.0105 223.444 32.3445 228.872 31.3545 231.052C29.9095 234.234 27.7625 234.994 26.8325 232.652C26.5925 232.047 26.0675 230.832 25.6665 229.952C25.2645 229.072 24.7455 227.902 24.5125 227.352C24.2795 226.802 23.9195 226.082 23.7135 225.752C23.5075 225.422 22.8565 224.072 22.2675 222.752C21.1135 220.166 20.4725 218.813 19.8045 217.552C19.5705 217.112 18.9015 215.852 18.3165 214.752C17.7315 213.652 16.9685 212.122 16.6205 211.352C16.2735 210.582 15.1205 208.152 14.0595 205.952C12.9975 203.752 11.5805 200.782 10.9105 199.352C9.82651 197.04 9.18051 195.787 8.02551 193.752C7.83751 193.422 7.49251 192.702 7.25751 192.152C6.17351 189.612 1.0325 179.495 0.586502 179.023C-0.567498 177.803 0.0415084 175.699 3.68651 168.309C5.66651 164.295 7.28651 160.834 7.28651 160.617C7.28651 160.401 7.97451 158.993 8.81551 157.488C9.65651 155.983 10.5925 154.122 10.8955 153.352C11.1985 152.582 11.9335 151.052 12.5285 149.952C13.8835 147.449 15.6585 143.926 17.2665 140.552C17.9475 139.122 19.1165 136.872 19.8635 135.552C20.6105 134.232 21.2475 132.882 21.2805 132.552C21.3135 132.222 21.9125 130.847 22.6135 129.497C24.2445 126.352 26.7205 121.261 27.7405 118.952C28.1785 117.962 28.6945 116.882 28.8885 116.552C29.0825 116.222 32.3205 109.742 36.0835 102.152C39.8475 94.5623 43.0975 88.0823 43.3075 87.7523C43.5165 87.4223 43.8675 86.7023 44.0875 86.1523C44.3065 85.6023 44.6695 84.8823 44.8945 84.5523C45.1185 84.2223 45.5795 83.3223 45.9175 82.5523C47.1315 79.7913 54.6465 64.3593 57.0205 59.7523C58.9875 55.9363 61.1425 51.3913 61.9045 49.4523C62.2725 48.5173 62.7115 47.7523 62.8815 47.7523C63.0505 47.7523 63.4175 47.1673 63.6965 46.4523C64.7005 43.8773 67.8145 37.5333 68.5155 36.6333C68.9085 36.1283 69.3545 35.1383 69.5055 34.4333C69.6555 33.7293 69.9195 32.9723 70.0925 32.7523C70.2645 32.5323 71.1485 30.8753 72.0565 29.0693C72.9635 27.2643 73.8825 25.6783 74.0965 25.5463C74.3115 25.4133 74.4865 25.0223 74.4865 24.6773C74.4865 24.1493 76.3565 20.2343 79.0355 15.1523C79.3835 14.4923 80.6755 11.8823 81.9065 9.35227C83.1375 6.82227 84.4015 4.46827 84.7155 4.12127C85.0295 3.77327 85.2865 3.24727 85.2865 2.95227C85.2865 2.65727 85.5845 2.08627 85.9485 1.68327C86.9455 0.58227 141.756 0.560266 143.182 1.66127ZM113.809 63.6093C113.547 63.7163 113.125 64.4673 112.872 65.2783C112.618 66.0893 111.548 68.4623 110.492 70.5523C107.468 76.5413 107.422 76.6353 106.429 78.9123C105.911 80.1003 105.014 81.9903 104.435 83.1123C102.275 87.3013 99.3055 93.1853 97.6545 96.5523C95.7665 100.403 94.3365 103.226 92.7255 106.285C91.9345 107.788 91.2865 109.249 91.2865 109.531C91.2865 109.813 90.9535 110.473 90.5475 110.998C90.1415 111.523 89.6775 112.492 89.5165 113.152C89.3555 113.812 88.9535 114.653 88.6225 115.02C87.3175 116.468 88.7615 116.552 114.872 116.552C137.623 116.552 140.136 116.489 140.357 115.913C140.556 115.395 137.717 108.993 136.028 106.152C134.962 104.358 133.287 100.665 133.286 100.106C133.286 99.7513 132.949 99.0313 132.538 98.5063C132.126 97.9813 130.413 94.7623 128.73 91.3523C127.046 87.9423 125.406 84.7023 125.085 84.1523C124.764 83.6023 124.116 82.2523 123.645 81.1523C122.755 79.0733 120.856 75.1363 118.918 71.3523C117.649 68.8773 115.912 65.1093 115.551 64.0523C115.317 63.3653 114.758 63.2233 113.809 63.6093ZM254.288 148.558C254.444 149.049 254.233 149.87 253.748 150.658C253.311 151.37 251.648 154.562 250.053 157.752C248.458 160.942 246.935 163.822 246.67 164.152C246.404 164.482 245.971 165.425 245.707 166.247C245.443 167.069 244.641 168.239 243.925 168.847C242.985 169.644 241.246 172.738 237.68 179.952C234.961 185.452 232.255 190.672 231.666 191.552C231.077 192.432 230.457 193.602 230.288 194.152C228.223 200.857 225.626 202.866 223.999 199.015C222.481 195.422 221.975 195.568 219.721 200.251C218.635 202.507 217.624 204.84 217.476 205.436C217.329 206.032 216.973 206.714 216.687 206.951C216.4 207.189 215.228 209.312 214.081 211.668C211.945 216.056 210.258 219.427 209.134 221.552C208.785 222.212 207.88 224.102 207.121 225.752C206.362 227.402 205.207 229.742 204.555 230.952C203.903 232.162 203.136 233.656 202.85 234.271C201.58 237.01 198.391 234.77 197.487 230.505C197.33 229.761 196.872 228.792 196.471 228.352C196.071 227.912 194.203 224.402 192.318 220.552C190.434 216.702 188.355 212.562 187.698 211.352C187.042 210.142 186.5 208.848 186.496 208.476C186.491 208.104 186.291 207.678 186.052 207.531C185.813 207.383 184.987 205.888 184.214 204.207C183.442 202.527 182.573 200.882 182.285 200.552C181.996 200.222 181.562 199.208 181.32 198.299C181.078 197.389 180.624 196.432 180.31 196.171C179.996 195.91 179.625 195.182 179.487 194.552C179.349 193.922 178.961 193.18 178.626 192.902C177.956 192.346 176.838 190.032 176.039 187.552C175.756 186.672 175.319 185.772 175.07 185.552C173.766 184.401 173.272 181.927 174.167 181.032C174.527 180.672 179.466 180.549 193.867 180.539C209.213 180.529 213.227 180.419 213.786 179.995C214.537 179.425 214.4 179.078 210.893 172.752C205.763 163.5 204.751 164.152 224.227 164.152C241.788 164.152 242.217 164.062 239.736 160.906C239.323 160.381 238.458 158.872 237.811 157.552C237.165 156.232 236.34 154.612 235.98 153.952C232.463 147.507 232.143 147.752 244.102 147.752C253.706 147.752 254.04 147.778 254.288 148.558Z" fill="black"/>
</svg>
